<svg width="81" height="78" viewBox="0 0 81 78" fill="none" xmlns="http://www.w3.org/2000/svg">
<g id="Group 9">
<rect id="Rectangle 26" width="81" height="77.2238" rx="15" fill="#17D492"/>
<path id="Vector" d="M18 20.3785C18 17.0262 20.8828 14.3007 24.4286 14.3007H56.5714C60.1172 14.3007 63 17.0262 63 20.3785V56.8453C63 60.1976 60.1172 62.9231 56.5714 62.9231H24.4286C20.8828 62.9231 18 60.1976 18 56.8453V20.3785ZM43.7143 56.8453C43.7143 56.0393 43.3756 55.2664 42.7728 54.6964C42.17 54.1265 41.3525 53.8064 40.5 53.8064C39.6475 53.8064 38.83 54.1265 38.2272 54.6964C37.6244 55.2664 37.2857 56.0393 37.2857 56.8453C37.2857 57.6512 37.6244 58.4242 38.2272 58.9941C38.83 59.564 39.6475 59.8842 40.5 59.8842C41.3525 59.8842 42.17 59.564 42.7728 58.9941C43.3756 58.4242 43.7143 57.6512 43.7143 56.8453ZM56.5714 20.3785H24.4286V50.7675H56.5714V20.3785Z" fill="#060627"/>
</g>
</svg>
