<svg width="61" height="61" viewBox="0 0 61 61" fill="none" xmlns="http://www.w3.org/2000/svg">
<g id="Insta">
<rect id="Rectangle 29" x="1.5" y="1.5" width="58" height="58" rx="13.5" stroke="#9CE4F6" stroke-width="3"/>
<path id="Vector" d="M21.6121 46.4149H14.5616V24.7736H21.6121V46.4149ZM18.083 21.8216C15.829 21.8216 14 20.0416 14 17.8927C14 16.8603 14.4302 15.8702 15.1959 15.1401C15.9616 14.4101 17.0001 14 18.083 14C19.1659 14 20.2045 14.4101 20.9702 15.1401C21.7359 15.8702 22.1661 16.8603 22.1661 17.8927C22.1661 20.0416 20.3371 21.8216 18.083 21.8216ZM47.9924 46.4149H40.9571V35.8801C40.9571 33.3694 40.904 30.1496 37.2915 30.1496C33.6259 30.1496 33.0643 32.8774 33.0643 35.6992V46.4149H26.0214V24.7736H32.7835V27.7257H32.8821C33.8232 26.0254 36.1228 24.231 39.5531 24.231C46.6871 24.231 48 28.7097 48 34.5271V46.4149H47.9924Z" fill="#9CE4F6"/>
</g>
</svg>
