<svg width="61" height="61" viewBox="0 0 61 61" fill="none" xmlns="http://www.w3.org/2000/svg">
<rect x="1.5" y="1.5" width="58" height="58" rx="13.5" stroke="#9CE4F6" stroke-width="3"/>
<path d="M31.0042 21.2573C25.6126 21.2573 21.2637 25.6072 21.2637 31C21.2637 36.3928 25.6126 40.7427 31.0042 40.7427C36.3959 40.7427 40.7448 36.3928 40.7448 31C40.7448 25.6072 36.3959 21.2573 31.0042 21.2573ZM31.0042 37.334C27.52 37.334 24.6716 34.4935 24.6716 31C24.6716 27.5065 27.5115 24.666 31.0042 24.666C34.4969 24.666 37.3369 27.5065 37.3369 31C37.3369 34.4935 34.4885 37.334 31.0042 37.334ZM43.4152 20.8588C43.4152 22.1222 42.3979 23.1312 41.1432 23.1312C39.8801 23.1312 38.8713 22.1137 38.8713 20.8588C38.8713 19.6038 39.8886 18.5863 41.1432 18.5863C42.3979 18.5863 43.4152 19.6038 43.4152 20.8588ZM49.8665 23.1651C49.7224 20.1211 49.0272 17.4246 46.7977 15.2031C44.5766 12.9815 41.8808 12.2862 38.8374 12.1335C35.7007 11.9555 26.2993 11.9555 23.1626 12.1335C20.1277 12.2777 17.4319 12.973 15.2023 15.1946C12.9728 17.4162 12.2861 20.1126 12.1335 23.1566C11.9555 26.294 11.9555 35.6975 12.1335 38.8349C12.2776 41.8789 12.9728 44.5754 15.2023 46.7969C17.4319 49.0185 20.1192 49.7138 23.1626 49.8664C26.2993 50.0445 35.7007 50.0445 38.8374 49.8664C41.8808 49.7223 44.5766 49.027 46.7977 46.7969C49.0187 44.5754 49.7139 41.8789 49.8665 38.8349C50.0445 35.6975 50.0445 26.3025 49.8665 23.1651ZM45.8143 42.2012C45.153 43.8631 43.873 45.1435 42.2029 45.8133C39.7021 46.8054 33.7679 46.5765 31.0042 46.5765C28.2406 46.5765 22.2979 46.7969 19.8056 45.8133C18.144 45.152 16.8639 43.8716 16.1942 42.2012C15.2023 39.6998 15.4312 33.7643 15.4312 31C15.4312 28.2357 15.2108 22.2918 16.1942 19.7988C16.8554 18.1369 18.1355 16.8565 19.8056 16.1867C22.3064 15.1946 28.2406 15.4235 31.0042 15.4235C33.7679 15.4235 39.7105 15.2031 42.2029 16.1867C43.8645 16.848 45.1446 18.1284 45.8143 19.7988C46.8061 22.3002 46.5772 28.2357 46.5772 31C46.5772 33.7643 46.8061 39.7082 45.8143 42.2012Z" fill="#9CE4F6"/>
</svg>
