<svg width="81" height="78" viewBox="0 0 81 78" fill="none" xmlns="http://www.w3.org/2000/svg">
<g id="Group 6">
<rect id="Rectangle 26" width="81" height="77.2238" rx="15" fill="#17D492"/>
<path id="Vector" d="M17.75 24.0729C17.75 22.7454 18.3031 21.4723 19.2877 20.5336C20.2723 19.595 21.6076 19.0676 23 19.0676C24.3924 19.0676 25.7277 19.595 26.7123 20.5336C27.6969 21.4723 28.25 22.7454 28.25 24.0729C28.25 25.4004 27.6969 26.6735 26.7123 27.6121C25.7277 28.5508 24.3924 29.0781 23 29.0781C21.6076 29.0781 20.2723 28.5508 19.2877 27.6121C18.3031 26.6735 17.75 25.4004 17.75 24.0729ZM17 38.168C16.0625 39.1691 15.5 40.5008 15.5 41.9488C15.5 43.3967 16.0625 44.7285 17 45.7295V38.1591V38.168ZM30.5375 33.7616C27.7531 36.1123 26 39.5534 26 43.3788C26 46.4446 27.125 49.26 29 51.4677V53.3893C29 54.9714 27.6594 56.2495 26 56.2495H20C18.3406 56.2495 17 54.9714 17 53.3893V50.994C13.4563 49.3851 11 45.944 11 41.9488C11 36.4162 15.6969 31.9383 21.5 31.9383H24.5C26.75 31.9383 28.8312 32.6086 30.5375 33.7527V33.7616ZM53 53.3893V51.4677C54.875 49.26 56 46.4446 56 43.3788C56 39.5534 54.2469 36.1123 51.4625 33.7527C53.1688 32.6086 55.25 31.9383 57.5 31.9383H60.5C66.3031 31.9383 71 36.4162 71 41.9488C71 45.944 68.5438 49.3851 65 50.994V53.3893C65 54.9714 63.6594 56.2495 62 56.2495H56C54.3406 56.2495 53 54.9714 53 53.3893ZM53.75 24.0729C53.75 22.7454 54.3031 21.4723 55.2877 20.5336C56.2723 19.595 57.6076 19.0676 59 19.0676C60.3924 19.0676 61.7277 19.595 62.7123 20.5336C63.6969 21.4723 64.25 22.7454 64.25 24.0729C64.25 25.4004 63.6969 26.6735 62.7123 27.6121C61.7277 28.5508 60.3924 29.0781 59 29.0781C57.6076 29.0781 56.2723 28.5508 55.2877 27.6121C54.3031 26.6735 53.75 25.4004 53.75 24.0729ZM65 38.168V45.7385C65.9375 44.7285 66.5 43.4057 66.5 41.9577C66.5 40.5098 65.9375 39.178 65 38.177V38.168ZM41 19.0676C42.5913 19.0676 44.1174 19.6703 45.2426 20.7431C46.3679 21.8158 47 23.2708 47 24.7879C47 26.305 46.3679 27.76 45.2426 28.8328C44.1174 29.9055 42.5913 30.5082 41 30.5082C39.4087 30.5082 37.8826 29.9055 36.7574 28.8328C35.6321 27.76 35 26.305 35 24.7879C35 23.2708 35.6321 21.8158 36.7574 20.7431C37.8826 19.6703 39.4087 19.0676 41 19.0676ZM33.5 43.3788C33.5 44.8268 34.0625 46.1496 35 47.1596V39.5891C34.0625 40.5991 33.5 41.922 33.5 43.3699V43.3788ZM47 39.5981V47.1685C47.9375 46.1585 48.5 44.8357 48.5 43.3878C48.5 41.9398 47.9375 40.6081 47 39.607V39.5981ZM53 43.3788C53 47.3741 50.5438 50.8152 47 52.424V56.2495C47 57.8315 45.6594 59.1096 44 59.1096H38C36.3406 59.1096 35 57.8315 35 56.2495V52.424C31.4562 50.8152 29 47.3741 29 43.3788C29 37.8462 33.6969 33.3683 39.5 33.3683H42.5C48.3031 33.3683 53 37.8462 53 43.3788Z" fill="#060627"/>
</g>
</svg>
