<svg width="22" height="22" viewBox="0 0 22 22" fill="none" xmlns="http://www.w3.org/2000/svg">
<rect width="22" height="22" fill="#1E1E1E"/>
<g id="Landing-Page" clip-path="url(#clip0_0_1)">
<rect width="1440" height="5358" transform="translate(-675 -1714)" fill="white"/>
<rect id="Rectangle 21" x="-674.5" y="-1713.5" width="1439" height="5119" fill="#060627" stroke="black"/>
<g id="About Section">
<g id="Right Side">
<g id="Group 4">
<path id="Vector" d="M10.5388 21.9278C13.3338 21.9278 16.0144 20.7726 17.9908 18.7165C19.9672 16.6604 21.0775 13.8717 21.0775 10.9639C21.0775 8.05608 19.9672 5.26737 17.9908 3.21125C16.0144 1.15512 13.3338 0 10.5388 0C7.7437 0 5.06313 1.15512 3.08673 3.21125C1.11033 5.26737 0 8.05608 0 10.9639C0 13.8717 1.11033 16.6604 3.08673 18.7165C5.06313 20.7726 7.7437 21.9278 10.5388 21.9278ZM15.1906 8.95098L9.92125 14.4329C9.53428 14.8355 8.90854 14.8355 8.52569 14.4329L5.891 11.6919C5.50403 11.2894 5.50403 10.6384 5.891 10.2401C6.27797 9.84179 6.90371 9.83751 7.28656 10.2401L9.22141 12.253L13.7909 7.49484C14.1779 7.09226 14.8037 7.09226 15.1865 7.49484C15.5694 7.89742 15.5735 8.5484 15.1865 8.9467L15.1906 8.95098Z" fill="#17D492"/>
</g>
</g>
</g>
</g>
<defs>
<clipPath id="clip0_0_1">
<rect width="1440" height="5358" fill="white" transform="translate(-675 -1714)"/>
</clipPath>
</defs>
</svg>
